<svg xmlns="http://www.w3.org/2000/svg" xmlns:xlink="http://www.w3.org/1999/xlink" width="216" height="219" fill="none" xmlns:v="https://vecta.io/nano"><style><![CDATA[.B{fill:#023047}.C{fill:#219ebc}.D{color-interpolation-filters:sRGB}.E{flood-opacity:0}.F{fill-rule:evenodd}]]></style><g filter="url(#A)"><g filter="url(#B)"><path d="M211 54.409C211 55.974 209.842 211 108.875 211S6.75 55.974 6.75 54.409c0-2.723 1.634-5.174 4.153-6.264l95.317-40.85c1.702-.749 3.608-.749 5.31 0l95.317 40.85c2.519 1.089 4.153 3.54 4.153 6.264z" fill="#8ecae6"/></g><g style="mix-blend-mode:soft-light" clip-path="url(#F)"><path d="M168.561 42.571c-6.505 0-11.794 5.288-11.794 11.792 0 4.253 2.282 7.956 5.668 10.032l-22.549 22.439-23.189-23.193c2.774-2.155 4.599-5.493 4.599-9.278 0-6.505-5.289-11.792-11.793-11.792a11.81 11.81 0 0 0-11.796 11.792c0 3.785 1.822 7.116 4.6 9.278L79.096 86.858 56.204 64.033c3.588-2.028 6.037-5.829 6.037-10.231A11.81 11.81 0 0 0 50.448 42c-6.505 0-11.796 5.289-11.796 11.803 0 4.575 2.641 8.505 6.458 10.45v87.744c0 .247.102.468.143.703-.018.221-.114.421-.114.648 0 14.607 40.456 18.504 64.363 18.504s64.362-3.897 64.362-18.504c0-.227-.099-.427-.111-.648.035-.235.134-.456.134-.703V64.816c3.814-1.953 6.459-5.882 6.459-10.459.013-6.498-5.282-11.786-11.785-11.786zm0 8.984c1.549 0 2.813 1.258 2.813 2.808a2.82 2.82 0 0 1-2.813 2.816c-1.557 0-2.808-1.267-2.808-2.816a2.82 2.82 0 0 1 2.808-2.808zm-3.645 23.048v37.258L146.238 93.19l18.678-18.587zm-5.867 81.898c-8.446 3.135-25.516 6.376-49.54 6.376-24.033 0-41.097-3.241-49.543-6.376-2.977-1.112-4.898-2.194-5.654-3.124 1.39-1.719 6.689-3.978 15.359-5.86a138.56 138.56 0 0 1 11.146-1.902c4.235-.562 8.933-1.018 14.071-1.321 4.551-.276 9.404-.434 14.628-.434 5.148 0 9.957.158 14.46.421 5.112.304 9.804.749 14.032 1.312 4.265.555 8.067 1.216 11.355 1.924 8.669 1.872 13.969 4.13 15.349 5.86-.754.93-2.679 2.012-5.662 3.124zM54.102 124.568l25.007-25.016 23.971 23.899-12.199 12.143c-13.585 1.03-27.847 3.323-36.778 7.594v-18.62h0zm55.407 10.289l-5.223.07 5.156-5.118 5.139 5.118-5.072-.07zm18.461.731l-12.161-12.114 24.065-23.946 25.048 25.057v18.613c-8.967-4.293-23.327-6.586-36.952-7.61zm-18.461-84.033c1.545 0 2.813 1.258 2.813 2.808a2.82 2.82 0 0 1-2.813 2.816 2.82 2.82 0 0 1-2.81-2.816c0-1.55 1.265-2.808 2.81-2.808zm0 17.605l24.013 24.019-24.071 23.948-23.992-23.925 24.051-24.042zM72.746 93.208l-18.644 18.649V74.609l18.644 18.599zM50.455 50.986a2.82 2.82 0 0 1 2.808 2.816 2.81 2.81 0 0 1-2.808 2.807 2.81 2.81 0 0 1-2.811-2.807c-.001-1.554 1.257-2.816 2.811-2.816zm122.376 118.828c1.298 2.118.625 4.868-1.486 6.167-7.359 4.492-29.33 9.02-61.836 9.02-32.017 0-54.717-5.418-61.511-8.845-2.217-1.118-3.109-3.814-1.994-6.026 1.12-2.21 3.811-3.123 6.031-2.001 3.308 1.668 22.752 7.88 57.47 7.88 32.682 0 52.073-4.615 57.15-7.698 2.118-1.288 4.878-.614 6.177 1.503z" fill="#000"/></g><path d="M75.053 111.973a15.86 15.86 0 0 1-5.1-.834c-1.65-.556-2.475-1.55-2.475-2.981s.647-2.146 1.941-2.146c.191 0 .953.25 2.283.752s2.479.752 3.445.752c.975 0 1.463-.411 1.463-1.231 0-.538-.333-.984-.998-1.34-.665-.364-1.595-.743-2.789-1.134-1.185-.392-1.928-.689-2.229-.889-1.385-.921-2.078-2.261-2.078-4.02 0-1.768.579-3.199 1.736-4.293 1.13-1.075 2.465-1.613 4.006-1.613s2.88.169 4.02.506c2.133.674 2.99 1.672 2.57 2.994-.41 1.313-1.167 1.923-2.269 1.832-.1 0-.647-.187-1.641-.561s-1.878-.561-2.652-.561c-.766 0-1.148.378-1.148 1.135 0 .483.323.902.971 1.258.656.346 1.577.729 2.762 1.148 1.185.41 1.937.725 2.256.943 1.404.948 2.105 2.361 2.105 4.239 0 1.868-.602 3.349-1.805 4.443-1.157 1.066-2.616 1.6-4.375 1.6zm24.281-3.364c0 .657-.524 1.399-1.572 2.229s-2.99 1.244-5.824 1.244-5.168-.88-7-2.639c-1.832-1.768-2.748-4.078-2.748-6.931s.911-5.164 2.734-6.932c1.823-1.777 4.17-2.666 7.041-2.666 2.88 0 4.826.415 5.838 1.244 1.021.829 1.531 1.577 1.531 2.242 0 .656-.219 1.244-.656 1.764-.437.51-.921.766-1.449.766-.519 0-1.349-.2-2.488-.602-1.13-.401-1.978-.602-2.543-.602-3.062 0-4.594 1.59-4.594 4.771s1.531 4.772 4.594 4.772c.565 0 1.413-.201 2.543-.602 1.139-.401 1.969-.602 2.488-.602.529 0 1.012.26 1.449.78.438.51.656 1.098.656 1.763zm20.727-6.097c0 2.853-.926 5.163-2.776 6.931-1.85 1.759-4.193 2.639-7.027 2.639s-5.168-.88-7-2.639c-1.832-1.768-2.748-4.078-2.748-6.931s.911-5.164 2.734-6.932c1.823-1.777 4.17-2.666 7.041-2.666 2.88 0 5.227.889 7.041 2.666 1.823 1.768 2.735 4.079 2.735 6.932zm-6.481-3.432c-.82-.902-1.914-1.353-3.281-1.353s-2.466.456-3.295 1.367c-.83.902-1.244 2.046-1.244 3.431 0 1.377.414 2.511 1.244 3.405s1.923 1.34 3.281 1.34c1.367 0 2.461-.452 3.281-1.354.83-.902 1.245-2.042 1.245-3.418s-.411-2.516-1.231-3.418zm18.99 4.99l2.707 3.555c.401.529.602 1.094.602 1.695s-.365 1.185-1.094 1.75c-.729.556-1.399.834-2.01.834s-1.189-.369-1.736-1.107l-4.402-5.879v4.621c0 1.586-.903 2.379-2.707 2.379s-2.707-.793-2.707-2.379V95.84c0-1.586.902-2.379 2.707-2.379h6.125c1.513 0 2.771.583 3.773 1.75 1.003 1.158 1.504 2.402 1.504 3.733 0 2.379-.921 4.088-2.762 5.127zm-5.933-6.89v4.211h1.558c1.532 0 2.297-.702 2.297-2.106s-.765-2.106-2.297-2.106h-1.558zm19.687 14.738c1.404 0 2.106-.725 2.106-2.174s-.702-2.174-2.106-2.174h-3.855v-2.734h3.308c1.404 0 2.106-.729 2.106-2.188s-.702-2.187-2.106-2.187h-3.308v-2.652h3.855c1.404 0 2.106-.725 2.106-2.174s-.702-2.174-2.106-2.174h-6.562c-1.805 0-2.707.793-2.707 2.379v13.699c0 1.586.902 2.379 2.707 2.379h6.562z" class="B"/><g clip-path="url(#G)"><ellipse cx="186.625" cy="104.465" rx="6.375" ry="5.767" class="C"/><ellipse cx="171.625" cy="93.291" rx="7.125" ry="6.128" fill="#ffb703"/><path d="M160.25 112.168c.122.209.287.392.484.539s.421.254.661.315a1.92 1.92 0 0 0 .736.044c.246-.033.482-.113.696-.236l8.111-4.907v-.02l-1.85-2.832v-.023l-8.11 4.632c-.43.245-.743.644-.871 1.11a1.78 1.78 0 0 0 .187 1.382l-.044-.004zM171.925 85c1.638.002 3.248.406 4.68 1.175s2.639 1.877 3.507 3.22 1.372 2.878 1.461 4.461a9.11 9.11 0 0 1-.952 4.588l17.178-9.804 1.327 2.137v.023l-10.757 6.545a9.81 9.81 0 0 1 5.355 2.32c1.493 1.293 2.534 3.003 2.979 4.893s.271 3.868-.497 5.659-2.092 3.306-3.789 4.336-3.683 1.524-5.682 1.413a9.85 9.85 0 0 1-5.478-2.033c-1.565-1.211-2.701-2.863-3.252-4.727s-.49-3.848.175-5.677l-6.535 3.971v-.02l-1.852-2.836 1.63-.93c-1.269-.031-2.52-.305-3.68-.805a9.68 9.68 0 0 1-3.081-2.107c-1.766-1.801-2.721-4.206-2.654-6.688s1.149-4.836 3.009-6.545A9.85 9.85 0 0 1 171.925 85h0zm27.942 5.37l1.22-.738c1.969-1.191.376-3.084-1.274-2.141l-1.279.731 1.326 2.138.007.01zm-14.574 17.712l1.709-4.708h-2.454v-1.655h4.262l.417.662-2.03 5.701h-1.904zm1.593-8.523a5.66 5.66 0 0 1 3.074.903c.91.589 1.619 1.426 2.037 2.405s.526 2.057.311 3.096a5.3 5.3 0 0 1-1.518 2.741 5.59 5.59 0 0 1-2.836 1.461 5.7 5.7 0 0 1-3.196-.311 5.5 5.5 0 0 1-2.479-1.979c-.605-.883-.927-1.92-.924-2.979.004-1.418.588-2.776 1.625-3.776s2.442-1.562 3.906-1.561h0zm-15.911-3.712c-.222.001-.444-.018-.663-.056a1.71 1.71 0 0 1-.591-.202 1.13 1.13 0 0 1-.417-.443c-.113-.237-.165-.497-.154-.758v-.857c.006-.14.032-.278.079-.41a.98.98 0 0 1 .205-.37c.1-.113.238-.188.389-.212-.151-.07-.281-.177-.376-.311-.074-.114-.119-.243-.13-.377l-.017-.43v-.718a1.24 1.24 0 0 1 .226-.781c.15-.195.357-.341.595-.42.251-.087.516-.131.782-.129h1.258c.269-.002.536.041.79.129.235.08.441.227.591.42a1.24 1.24 0 0 1 .226.781v.718c-.002.081-.009.162-.021.242a1.63 1.63 0 0 1-.068.331.81.81 0 0 1-.161.288.45.45 0 0 1-.284.146c.091.015.177.048.254.097s.143.111.194.185c.09.133.15.283.178.44.025.13.039.262.041.394v.85c.023.33-.061.658-.239.94-.156.205-.379.353-.633.42a3.1 3.1 0 0 1-.841.106l-1.213-.01zm.304-1.406h.462c.195 0 .311-.036.342-.106.047-.089.07-.188.064-.288v-.404c.004-.105-.032-.207-.102-.288a.38.38 0 0 0-.135-.09c-.052-.02-.107-.029-.162-.025h-.469a.55.55 0 0 0-.188.03c-.049.018-.092.048-.126.086s-.06.081-.075.129-.027.105-.028.159v.404c-.006.055-.001.11.015.163a.41.41 0 0 0 .078.145.48.48 0 0 0 .341.086h-.017zm0-2.607h.462a.42.42 0 0 0 .225-.046c.024-.019.043-.042.057-.068s.023-.055.025-.084a1.28 1.28 0 0 0 .021-.255v-.268c0-.165-.034-.261-.103-.291a.56.56 0 0 0-.225-.043h-.462a.52.52 0 0 0-.242.046c-.058.033-.086.129-.086.288v.268c-.018.131.008.265.075.38a.35.35 0 0 0 .119.061c.044.012.089.016.134.012zm.229-4.579c1.095-.002 2.166.311 3.077.898s1.623 1.423 2.043 2.402.532 2.056.319 3.096a5.3 5.3 0 0 1-1.512 2.745c-.773.75-1.759 1.261-2.833 1.469s-2.187.102-3.199-.303-1.876-1.092-2.485-1.973a5.24 5.24 0 0 1-.933-2.977c0-1.42.582-2.782 1.619-3.787s2.444-1.569 3.911-1.57h-.007z" class="B F"/></g><g clip-path="url(#H)"><rect width="13.985" height="9.324" rx="3" transform="matrix(-.9861 .166154 .166154 .9861 49.9915 109.257)" fill="#000"/><ellipse rx="3.263" ry="5.594" transform="matrix(-.9861 .166154 .166154 .9861 32.208 107.526)" class="C"/><path transform="matrix(-.982 .189004 .189004 .982 48.6324 101.726)" d="M0 0h16.782v7.605H0z" class="C"/><rect width="7.459" height="12.121" rx="3" transform="matrix(-.9861 .166154 .166154 .9861 54.8782 98.9788)" class="C"/><path transform="matrix(-.8664 .499409 .499409 .8664 18.2215 80.6513)" d="M0 0h5.31v29.943H0z" class="C"/><path d="M19.422 79.959c-.214-.384-.694-.521-1.074-.307a.8.8 0 0 0-.3 1.082l4.122 7.445-3.102 1.862-4.199-7.664c-.21-.385-.69-.527-1.071-.316s-.52.694-.31 1.079l10.374 18.938.033.059L25 104.154c2.841 4.666 4.822 7.919 8.252 9.631.391.194.863.033 1.054-.361a.8.8 0 0 0-.36-1.065c-3.017-1.505-4.899-4.595-7.597-9.027l-.726-1.323 3.32-2.047c2.713 4.263 5.469 6.816 12.013 4.648a.97.97 0 0 0 .095-.038l9.786-3.809c1.215-.424 2.166-.46 2.822-.065s1.096 1.268 1.303 2.664l.101 1.113c.217 2.193.425 4.313-1.008 6.073l-.002.001c-.156.191-.326.366-.51.523-.193.163-.398.307-.618.432-.38.214-.513.699-.3 1.081a.79.79 0 0 0 .2.237.81.81 0 0 0 .274.141c.1.028.204.037.306.024s.202-.044.292-.095c.32-.181.608-.382.865-.601a5.57 5.57 0 0 0 .714-.728l-.002-.002c1.85-2.272 1.609-4.716 1.36-7.243l-.103-1.085-.008-.081c-.279-1.915-.978-3.17-2.061-3.823s-2.476-.656-4.142-.072c-2.963 1.213-6.88 2.897-9.859 3.836-6.594 2.185-8.744-1.465-11.737-6.543l-.383-.65-8.921-15.941zm3.519 9.612l4.43 7.789.739 1.247-3.252 2.006-5.026-9.176 3.108-1.866h0zm26.615 21.881c-.132.287-.552.626-1.157.976-1.102.637-2.702 1.187-4.384 1.535s-3.437.493-4.837.317c-.895-.112-1.615-.344-2.01-.725.571-1.205 2.417-2.139 4.53-2.69a16.54 16.54 0 0 1 3.462-.52c1.106-.043 2.139.039 2.964.262.717.192 1.239.474 1.432.845h0zm-12.172 4.031c.48.18 1.023.305 1.61.378 1.568.196 3.5.041 5.341-.339s3.613-.993 4.85-1.708c.262-.152.503-.31.72-.476l.415 2.464h.004l.016.096c.036.214.041.238-.119.47l-.077.105c-1.011 1.317-3.487 2.192-6.007 2.553s-5.006.204-6.064-.542l-.061-.045c-.159-.125-.169-.197-.197-.372l-.029-.183.003-.001-.404-2.4h0zm3.916-6.164c-2.775.723-5.206 2.133-5.766 4.105a.8.8 0 0 0-.034.399l.728 4.323.003-.001.026.164c.096.622.135.875.788 1.387l.128.094c1.384.972 4.321 1.22 7.191.81s5.747-1.482 7.028-3.148l.123-.17c.529-.766.514-.857.378-1.646l-.016-.096h.003l-.718-4.264-.015-.067c-.279-1.076-1.26-1.776-2.625-2.143-.97-.261-2.165-.359-3.429-.31a18.15 18.15 0 0 0-3.793.563h0z" class="B"/></g></g><g filter="url(#C)"><use xlink:href="#I" fill="#e0e0e0"/><path d="M111 156c5.8 0 11.05 2.352 14.848 6.152A20.95 20.95 0 0 1 132 177c0 5.8-2.352 11.05-6.152 14.848S116.797 198 111 198s-11.05-2.352-14.848-6.152S90 182.8 90 177s2.352-11.05 6.152-14.848S105.2 156 111 156zm3.832 24.179c-1.682 3.271-3.364 5.913-5.685 8.029-2.3 2.098-5.195 3.653-9.296 4.768a19.34 19.34 0 0 0 6.309 2.898c.92-.031 1.846-.188 2.755-.448 3.346-.953 6.453-3.264 8.723-5.67 2.208-2.345 3.592-4.703 3.568-5.9a17.61 17.61 0 0 0-3.08-2.242c-1.052-.598-2.149-1.073-3.294-1.435zm-16.458 11.658a.77.77 0 0 1 .243-.106c4.3-1.056 7.236-2.566 9.508-4.641 2.092-1.911 3.654-4.324 5.209-7.311-1.623-.366-3.329-.523-5.113-.503-2.184 2.126-4.546 3.709-7.072 4.782-.013.007-.027.01-.041.017-2.365.998-4.874 1.549-7.516 1.678a19.53 19.53 0 0 0 3.633 5.025 20.78 20.78 0 0 0 1.148 1.059zm24.018-8.948c.027.021.051.045.075.069 1.566 1.462 3.012 3.264 4.331 5.444 1.326-1.835 2.341-3.913 2.967-6.152-2.591-4.59-5.766-7.434-9.191-9.085s-7.127-2.126-10.757-1.962c-.591 1.839-.967 3.992-1.052 6.559 3.691.031 7.068.803 10.11 2.54 1.23.7 2.403 1.558 3.517 2.587zm.092 2.232c-.519 1.572-1.862 3.671-3.746 5.671-2.15 2.283-5.028 4.491-8.182 5.684l.444.006c5.38 0 10.25-2.18 13.774-5.704a19.59 19.59 0 0 0 1.019-1.097c-1.025-1.771-2.129-3.282-3.309-4.56zm-12.096-15.453c3.651-.092 7.362.452 10.842 2.13 3.319 1.599 6.409 4.224 9.003 8.299a19.65 19.65 0 0 0 .246-3.097c0-3.042-.697-5.92-1.941-8.487-1.949-1.5-4.201-2.707-6.515-3.555-2.399-.878-4.854-1.374-7.103-1.418h-.037c-1.788 1.61-3.381 3.524-4.495 6.128zm6.197-7.536c1.945.198 3.978.68 5.961 1.405a27.19 27.19 0 0 1 4.163 1.941c-.588-.8-1.234-1.552-1.935-2.252a19.5 19.5 0 0 0-4.822-3.531l-.732.516c-.885.625-1.77 1.254-2.635 1.921zm-19.383 21.612c-1.877-3.429-2.916-7.011-2.844-10.794.055-2.919.772-5.944 2.269-9.102-3.172 3.465-5.106 8.083-5.106 13.152 0 2.567.496 5.018 1.398 7.26 1.473-.031 2.902-.202 4.283-.516zm2.833-22.849c-.007.01-.01.017-.017.027-2.799 4.283-4.078 8.278-4.149 12.048-.068 3.627.971 7.065 2.837 10.37a19.14 19.14 0 0 0 1.815-.663c.01-.007.023-.01.034-.017.806-.342 1.596-.742 2.365-1.196-1.9-3.955-2.341-8.535-1.121-13.019 1.039-3.811 3.274-7.554 6.829-10.78-3.158.382-6.084 1.521-8.593 3.23zm11.102-3.374c-.021.021-.045.044-.072.062-4.163 3.277-6.706 7.232-7.803 11.258-1.104 4.068-.735 8.21.94 11.799a23.25 23.25 0 0 0 3.038-2.529c.246-11.447 5.732-15.333 11.109-19.137l.02-.011a19.34 19.34 0 0 0-7.232-1.442z" class="B"/></g><g filter="url(#D)"><path d="M142 147c0-11.046 8.954-20 20-20h0c11.046 0 20 8.954 20 20h0c0 11.046-8.954 20-20 20h0c-11.046 0-20-8.954-20-20h0z" fill="#e9e9e9"/><path d="M162 127a19.93 19.93 0 0 1 14.141 5.859A19.94 19.94 0 0 1 182 147a19.93 19.93 0 0 1-5.859 14.141A19.94 19.94 0 0 1 162 167c-5.521 0-10.524-2.24-14.141-5.859a19.93 19.93 0 0 1 0-28.282A19.93 19.93 0 0 1 162 127zm5.016 38.112l-.039-.026 2.243-7.516-4.626-5.131-5.452-.048-4.323 5.41 2.168 7.265-.049.033a18.82 18.82 0 0 0 5.062.69c1.738 0 3.421-.234 5.016-.677zm-21.038-8.291l7.923.039 4.141-5.186-1.713-5.247-6.972-3.027-6.127 4.459c.147 3.275 1.133 6.332 2.748 8.962zm1.481-21.722l2.409 7.207 6.504 2.826 5.026-3.897v-7.419l-6.211-4.332c-2.448.954-4.649 2.405-6.475 4.231a18.89 18.89 0 0 0-1.253 1.384zm21.136-5.7l-5.99 4.362v7.464l4.721 3.649 6.774-2.903 2.337-6.996c-.365-.439-.749-.859-1.152-1.263-1.879-1.878-4.154-3.362-6.69-4.313zm12.171 18.552l-.006.003-6.504-4.737-6.449 2.764-1.979 5.869 4.47 4.958c.019.019.029.042.035.068l7.683-.036a18.75 18.75 0 0 0 2.75-8.889z" class="B F"/></g><g filter="url(#E)"><use xlink:href="#I" x="-51" y="-31" fill="#ce1010"/><path d="M39.072 144.253a1.04 1.04 0 0 1 .017-.205c.461-5.017 2.693-9.529 6.063-12.896C48.95 127.352 54.2 125 60 125a21.16 21.16 0 0 1 .666.01 1.04 1.04 0 0 1 .294.011c5.417.246 10.298 2.539 13.887 6.131C78.648 134.953 81 140.203 81 146s-2.352 11.05-6.152 14.848c-.181.181-.362.359-.55.529-.099.168-.243.298-.414.373-3.702 3.264-8.562 5.247-13.887 5.247-.14 0-.28-.004-.42-.004a.84.84 0 0 1-.188-.003c-5.558-.157-10.572-2.475-14.239-6.142a22.15 22.15 0 0 1-.954-1.019c-.127-.089-.226-.208-.291-.338C40.846 155.84 39 151.137 39 146a21.12 21.12 0 0 1 .072-1.747zm1.897-.485c1.825 1.138 3.78 2.051 5.81 2.769-.085-3.531-.776-7.51-2.143-11.984-1.965 2.629-3.268 5.783-3.667 9.215zm5.065-10.883c1.743 5.377 2.567 10.097 2.587 14.243 1.661.482 3.363.844 5.072 1.094-.082-1.265-.099-2.509-.055-3.74.225-6.299 2.058-12.164 5.435-17.619-4.922.236-9.358 2.324-12.623 5.588l-.417.434zm15.203-6.005c-3.592 5.448-5.54 11.33-5.766 17.667a36.42 36.42 0 0 0 .075 3.9c1.538.154 3.076.226 4.587.219a44.85 44.85 0 0 0 2.181-.062c-.157-2.443.294-4.966 1.251-7.406 1.531-3.893 4.361-7.595 8.049-10.435-2.916-2.225-6.487-3.634-10.377-3.883zm11.813 5.093c-3.575 2.662-6.316 6.186-7.773 9.898-.858 2.191-1.268 4.44-1.128 6.607 6.419-.588 11.983-2.475 14.865-4.86-.537-4.338-2.526-8.227-5.465-11.163a21.49 21.49 0 0 0-.499-.482zm6.108 13.815c-3.298 2.218-8.685 3.931-14.759 4.505.325 1.5.937 2.943 1.877 4.269 1.473 2.082 3.756 3.9 6.986 5.267l.287-.28c3.466-3.466 5.612-8.258 5.612-13.549-.003-.072-.003-.14-.003-.212zm-7.434 15.367c-3.131-1.463-5.407-3.366-6.945-5.537a13.41 13.41 0 0 1-2.229-5.188 46.97 46.97 0 0 1-2.416.071 45.86 45.86 0 0 1-4.409-.194c.567 4.706 2.017 9.655 4.368 14.851 4.382-.021 8.415-1.511 11.631-4.003zm-13.682 3.904c-2.273-5.216-3.661-10.203-4.184-14.968-1.774-.242-3.544-.594-5.281-1.073-.219 3.794-1.152 7.079-2.707 9.916a20.03 20.03 0 0 0 .584.611 19.08 19.08 0 0 0 11.587 5.514zm-13.443-7.66c1.278-2.567 2.027-5.524 2.167-8.928-2.054-.683-4.047-1.555-5.923-2.638V146c0 4.269 1.395 8.213 3.756 11.399z" fill="#620000"/></g><defs><filter id="A" x="-4" y="0" width="224" height="224" filterUnits="userSpaceOnUse" class="D"><feFlood result="A" class="E"/><feColorMatrix in="SourceAlpha" values="0 0 0 0 0 0 0 0 0 0 0 0 0 0 0 0 0 0 127 0" result="B"/><feOffset dy="4"/><feGaussianBlur stdDeviation="2"/><feComposite in2="B" operator="out"/><feColorMatrix values="0 0 0 0 0 0 0 0 0 0 0 0 0 0 0 0 0 0 0.25 0"/><feBlend in2="A"/><feBlend in="SourceGraphic"/></filter><filter id="B" x="6.75" y="2.733" width="204.25" height="208.267" filterUnits="userSpaceOnUse" class="D"><feFlood class="E"/><feBlend in="SourceGraphic" result="B"/><feColorMatrix in="SourceAlpha" values="0 0 0 0 0 0 0 0 0 0 0 0 0 0 0 0 0 0 127 0" result="C"/><feOffset dy="-14"/><feGaussianBlur stdDeviation="2"/><feComposite in2="C" operator="arithmetic" k2="-1" k3="1"/><feColorMatrix values="0 0 0 0 0 0 0 0 0 0 0 0 0 0 0 0 0 0 0.25 0"/><feBlend in2="B"/></filter><filter id="C" x="86" y="156" width="50" height="50" filterUnits="userSpaceOnUse" class="D"><feFlood result="A" class="E"/><feColorMatrix in="SourceAlpha" values="0 0 0 0 0 0 0 0 0 0 0 0 0 0 0 0 0 0 127 0" result="B"/><feOffset dy="4"/><feGaussianBlur stdDeviation="2"/><feComposite in2="B" operator="out"/><feColorMatrix values="0 0 0 0 0 0 0 0 0 0 0 0 0 0 0 0 0 0 0.25 0"/><feBlend in2="A"/><feBlend in="SourceGraphic"/></filter><filter id="D" x="138" y="127" width="48" height="48" filterUnits="userSpaceOnUse" class="D"><feFlood result="A" class="E"/><feColorMatrix in="SourceAlpha" values="0 0 0 0 0 0 0 0 0 0 0 0 0 0 0 0 0 0 127 0" result="B"/><feOffset dy="4"/><feGaussianBlur stdDeviation="2"/><feComposite in2="B" operator="out"/><feColorMatrix values="0 0 0 0 0 0 0 0 0 0 0 0 0 0 0 0 0 0 0.25 0"/><feBlend in2="A"/><feBlend in="SourceGraphic"/></filter><filter id="E" x="35" y="125" width="50" height="50" filterUnits="userSpaceOnUse" class="D"><feFlood result="A" class="E"/><feColorMatrix in="SourceAlpha" values="0 0 0 0 0 0 0 0 0 0 0 0 0 0 0 0 0 0 127 0" result="B"/><feOffset dy="4"/><feGaussianBlur stdDeviation="2"/><feComposite in2="B" operator="out"/><feColorMatrix values="0 0 0 0 0 0 0 0 0 0 0 0 0 0 0 0 0 0 0.25 0"/><feBlend in2="A"/><feBlend in="SourceGraphic"/></filter><clipPath id="F"><path fill="#fff" transform="translate(38 42)" d="M0 0h143v143H0z"/></clipPath><clipPath id="G"><path fill="#fff" transform="translate(160 85)" d="M0 0h42v31H0z"/></clipPath><clipPath id="H"><path fill="#fff" transform="matrix(-.9861 .166154 .166154 .9861 51.6149 74)" d="M0 0h39.159v44.753H0z"/></clipPath><path id="I" d="M90 177c0-11.598 9.402-21 21-21h0c11.598 0 21 9.402 21 21h0c0 11.598-9.402 21-21 21h0c-11.598 0-21-9.402-21-21h0z"/></defs></svg>