<svg width="216" height="219" viewBox="0 0 216 219" fill="none" xmlns="http://www.w3.org/2000/svg">
<g filter="url(#filter0_d_69_74)">
<g filter="url(#filter1_i_69_74)">
<path d="M211 54.4085C211 55.9744 209.842 211 108.875 211C7.90742 211 6.75 55.9744 6.75 54.4085C6.75 51.6851 8.384 49.2341 10.9031 48.1448L106.22 7.29484C107.922 6.54593 109.828 6.54593 111.53 7.29484L206.847 48.1448C209.366 49.2341 211 51.6851 211 54.4085Z" fill="#8ECAE6"/>
</g>
<g style="mix-blend-mode:soft-light" clip-path="url(#clip0_69_74)">
<path d="M168.561 42.5713C162.056 42.5713 156.767 47.8591 156.767 54.3638C156.767 58.6167 159.049 62.3194 162.435 64.3959L139.886 86.8351L116.697 63.6416C119.471 61.4863 121.296 58.1486 121.296 54.3638C121.296 47.8591 116.007 42.5713 109.503 42.5713C102.998 42.5713 97.7069 47.8591 97.7069 54.3638C97.7069 58.1486 99.5294 61.4797 102.307 63.6416L79.0958 86.8584L56.204 64.0332C59.7925 62.0055 62.2406 58.204 62.2406 53.8025C62.2417 47.2889 56.9528 42 50.4481 42C43.9434 42 38.6522 47.2889 38.6522 53.8025C38.6522 58.3771 41.2934 62.3072 45.1103 64.2528V151.997C45.1103 152.244 45.2124 152.465 45.2534 152.7C45.2357 152.921 45.1392 153.121 45.1392 153.348C45.1392 167.955 85.5949 171.852 109.502 171.852C133.409 171.852 173.864 167.955 173.864 153.348C173.864 153.121 173.765 152.921 173.753 152.7C173.788 152.465 173.887 152.244 173.887 151.997V64.8163C177.701 62.8629 180.346 58.9339 180.346 54.3571C180.359 47.8591 175.064 42.5713 168.561 42.5713ZM168.561 51.5551C170.11 51.5551 171.374 52.813 171.374 54.3627C171.374 55.9123 170.116 57.1791 168.561 57.1791C167.004 57.1791 165.753 55.9123 165.753 54.3627C165.753 52.813 167.028 51.5551 168.561 51.5551ZM164.916 74.6033V111.861L146.238 93.19L164.916 74.6033ZM159.049 156.501C150.603 159.636 133.533 162.877 109.509 162.877C85.4762 162.877 68.4125 159.636 59.9655 156.501C56.9883 155.389 55.067 154.307 54.3116 153.377C55.7015 151.658 61.0004 149.399 69.6704 147.517C72.9172 146.82 76.6432 146.159 80.8162 145.615C85.0514 145.053 89.7491 144.597 94.8872 144.294C99.4385 144.018 104.291 143.86 109.515 143.86C114.663 143.86 119.472 144.018 123.975 144.281C129.087 144.585 133.779 145.03 138.007 145.593C142.272 146.148 146.074 146.809 149.362 147.517C158.031 149.389 163.331 151.647 164.711 153.377C163.957 154.307 162.032 155.389 159.049 156.501ZM54.102 124.568L79.1091 99.5516L103.08 123.451L90.8805 135.594C77.2954 136.624 63.0337 138.917 54.102 143.188V124.568V124.568ZM109.509 134.857C107.851 134.857 106.09 134.88 104.286 134.927L109.442 129.809L114.581 134.927C112.837 134.88 111.129 134.857 109.509 134.857ZM127.97 135.588L115.809 123.474L139.874 99.5283L164.922 124.585V143.198C155.955 138.905 141.595 136.612 127.97 135.588ZM109.509 51.5551C111.054 51.5551 112.322 52.813 112.322 54.3627C112.322 55.9123 111.059 57.1791 109.509 57.1791C107.96 57.1791 106.699 55.9123 106.699 54.3627C106.699 52.813 107.964 51.5551 109.509 51.5551ZM109.509 69.1602L133.522 93.1789L109.451 117.127L85.4585 93.2022L109.509 69.1602ZM72.7464 93.2078L54.102 111.857V74.6089L72.7464 93.2078ZM50.4547 50.9861C51.9988 50.9861 53.2623 52.2495 53.2623 53.8025C53.2623 55.3521 52.0044 56.61 50.4547 56.61C48.9018 56.61 47.6439 55.3521 47.6439 53.8025C47.6428 52.2484 48.9007 50.9861 50.4547 50.9861ZM172.831 169.814C174.129 171.932 173.456 174.682 171.345 175.981C163.986 180.473 142.015 185.001 109.509 185.001C77.4918 185.001 54.7919 179.583 47.9977 176.156C45.7803 175.038 44.8885 172.342 46.0033 170.13C47.1236 167.92 49.8147 167.007 52.0343 168.129C55.3421 169.797 74.7863 176.009 109.504 176.009C142.186 176.009 161.577 171.394 166.654 168.311C168.772 167.023 171.532 167.697 172.831 169.814Z" fill="black"/>
</g>
<path d="M75.0527 111.973C73.3027 111.973 71.6029 111.695 69.9531 111.139C68.3034 110.583 67.4785 109.589 67.4785 108.158C67.4785 106.727 68.1257 106.012 69.4199 106.012C69.6113 106.012 70.3724 106.262 71.7031 106.764C73.0339 107.265 74.1823 107.516 75.1484 107.516C76.1237 107.516 76.6113 107.105 76.6113 106.285C76.6113 105.747 76.2786 105.301 75.6133 104.945C74.9479 104.581 74.0182 104.202 72.8242 103.811C71.6393 103.419 70.8965 103.122 70.5957 102.922C69.2103 102.001 68.5176 100.661 68.5176 98.9023C68.5176 97.1341 69.0964 95.7031 70.2539 94.6094C71.3841 93.5339 72.7194 92.9961 74.2598 92.9961C75.8001 92.9961 77.14 93.1647 78.2793 93.502C80.4121 94.1764 81.2689 95.1745 80.8496 96.4961C80.4395 97.8086 79.6829 98.4193 78.5801 98.3281C78.4798 98.3281 77.9329 98.1413 76.9395 97.7676C75.946 97.3939 75.0618 97.207 74.2871 97.207C73.5215 97.207 73.1387 97.5853 73.1387 98.3418C73.1387 98.8249 73.4622 99.2441 74.1094 99.5996C74.7656 99.946 75.6862 100.329 76.8711 100.748C78.056 101.158 78.8079 101.473 79.127 101.691C80.5306 102.639 81.2324 104.052 81.2324 105.93C81.2324 107.798 80.6309 109.279 79.4277 110.373C78.2702 111.439 76.8118 111.973 75.0527 111.973ZM99.334 108.609C99.334 109.266 98.8099 110.008 97.7617 110.838C96.7135 111.667 94.7721 112.082 91.9375 112.082C89.1029 112.082 86.7695 111.202 84.9375 109.443C83.1055 107.675 82.1895 105.365 82.1895 102.512C82.1895 99.6589 83.1009 97.3483 84.9238 95.5801C86.7467 93.8027 89.0938 92.9141 91.9648 92.9141C94.8451 92.9141 96.791 93.3288 97.8027 94.1582C98.8236 94.9876 99.334 95.735 99.334 96.4004C99.334 97.0566 99.1152 97.6445 98.6777 98.1641C98.2402 98.6745 97.7572 98.9297 97.2285 98.9297C96.709 98.9297 95.8796 98.7292 94.7402 98.3281C93.61 97.9271 92.7624 97.7266 92.1973 97.7266C89.1348 97.7266 87.6035 99.3171 87.6035 102.498C87.6035 105.679 89.1348 107.27 92.1973 107.27C92.7624 107.27 93.61 107.069 94.7402 106.668C95.8796 106.267 96.709 106.066 97.2285 106.066C97.7572 106.066 98.2402 106.326 98.6777 106.846C99.1152 107.356 99.334 107.944 99.334 108.609ZM120.061 102.512C120.061 105.365 119.135 107.675 117.285 109.443C115.435 111.202 113.092 112.082 110.258 112.082C107.423 112.082 105.09 111.202 103.258 109.443C101.426 107.675 100.51 105.365 100.51 102.512C100.51 99.6589 101.421 97.3483 103.244 95.5801C105.067 93.8027 107.414 92.9141 110.285 92.9141C113.165 92.9141 115.512 93.8027 117.326 95.5801C119.149 97.3483 120.061 99.6589 120.061 102.512ZM113.58 99.0801C112.76 98.1777 111.666 97.7266 110.299 97.7266C108.932 97.7266 107.833 98.1823 107.004 99.0938C106.174 99.9961 105.76 101.14 105.76 102.525C105.76 103.902 106.174 105.036 107.004 105.93C107.833 106.823 108.927 107.27 110.285 107.27C111.652 107.27 112.746 106.818 113.566 105.916C114.396 105.014 114.811 103.874 114.811 102.498C114.811 101.122 114.4 99.9824 113.58 99.0801ZM132.57 104.07L135.277 107.625C135.678 108.154 135.879 108.719 135.879 109.32C135.879 109.922 135.514 110.505 134.785 111.07C134.056 111.626 133.386 111.904 132.775 111.904C132.165 111.904 131.586 111.535 131.039 110.797L126.637 104.918V109.539C126.637 111.125 125.734 111.918 123.93 111.918C122.125 111.918 121.223 111.125 121.223 109.539V95.8398C121.223 94.2539 122.125 93.4609 123.93 93.4609H130.055C131.568 93.4609 132.826 94.0443 133.828 95.2109C134.831 96.3685 135.332 97.6126 135.332 98.9434C135.332 101.322 134.411 103.031 132.57 104.07ZM126.637 97.1797V101.391H128.195C129.727 101.391 130.492 100.689 130.492 99.2852C130.492 97.8815 129.727 97.1797 128.195 97.1797H126.637ZM146.324 111.918C147.728 111.918 148.43 111.193 148.43 109.744C148.43 108.295 147.728 107.57 146.324 107.57H142.469V104.836H145.777C147.181 104.836 147.883 104.107 147.883 102.648C147.883 101.19 147.181 100.461 145.777 100.461H142.469V97.8086H146.324C147.728 97.8086 148.43 97.084 148.43 95.6348C148.43 94.1855 147.728 93.4609 146.324 93.4609H139.762C137.957 93.4609 137.055 94.2539 137.055 95.8398V109.539C137.055 111.125 137.957 111.918 139.762 111.918H146.324Z" fill="#023047"/>
<g clip-path="url(#clip1_69_74)">
<ellipse cx="186.625" cy="104.465" rx="6.375" ry="5.76744" fill="#219EBC"/>
<ellipse cx="171.625" cy="93.2907" rx="7.125" ry="6.12791" fill="#FFB703"/>
<path fill-rule="evenodd" clip-rule="evenodd" d="M160.25 112.168C160.372 112.377 160.537 112.56 160.734 112.707C160.93 112.853 161.155 112.961 161.395 113.022C161.635 113.084 161.885 113.099 162.131 113.066C162.377 113.033 162.613 112.953 162.827 112.83L170.938 107.923V107.903L169.088 105.071V105.048L160.978 109.68C160.548 109.925 160.235 110.324 160.107 110.79C159.979 111.256 160.046 111.753 160.294 112.172L160.25 112.168ZM171.925 85C173.563 85.0018 175.173 85.406 176.605 86.1746C178.037 86.9432 179.244 88.0511 180.112 89.3945C180.981 90.7379 181.484 92.2729 181.573 93.8556C181.662 95.4383 181.334 97.0169 180.621 98.4436L197.799 88.6397L199.126 90.7771V90.8003L188.369 97.3451C190.359 97.5622 192.231 98.3731 193.724 99.6655C195.217 100.958 196.258 102.668 196.703 104.558C197.147 106.449 196.974 108.426 196.206 110.217C195.438 112.008 194.114 113.523 192.417 114.553C190.72 115.583 188.734 116.077 186.735 115.966C184.735 115.854 182.821 115.144 181.257 113.933C179.692 112.722 178.556 111.07 178.005 109.206C177.454 107.342 177.515 105.358 178.18 103.529L171.645 107.5V107.48L169.793 104.644L171.423 103.714C170.154 103.683 168.903 103.409 167.743 102.909C166.583 102.409 165.536 101.693 164.662 100.802C162.896 99.0014 161.941 96.5957 162.008 94.114C162.075 91.6323 163.157 89.2779 165.017 87.5687C166.877 85.8595 169.362 84.9355 171.925 85V85ZM199.867 90.3701L201.087 89.6323C203.056 88.4411 201.463 86.5485 199.813 87.4915L198.534 88.2227L199.86 90.3602L199.867 90.3701ZM185.293 108.082L187.002 103.374H184.548V101.719H188.81L189.227 102.381L187.197 108.082H185.293ZM186.886 99.5586C187.98 99.5586 189.05 99.873 189.96 100.462C190.87 101.051 191.579 101.888 191.997 102.867C192.415 103.847 192.523 104.924 192.308 105.963C192.094 107.002 191.565 107.956 190.79 108.704C190.015 109.452 189.028 109.96 187.954 110.165C186.88 110.37 185.768 110.261 184.758 109.854C183.747 109.446 182.885 108.757 182.279 107.875C181.674 106.992 181.352 105.955 181.355 104.896C181.359 103.478 181.943 102.12 182.98 101.12C184.017 100.119 185.422 99.5578 186.886 99.5586V99.5586ZM170.975 95.8462C170.753 95.8475 170.531 95.8286 170.312 95.7899C170.104 95.7593 169.903 95.6908 169.721 95.5881C169.543 95.4798 169.398 95.3265 169.304 95.1447C169.191 94.9074 169.139 94.6478 169.15 94.387V93.53C169.156 93.3903 169.182 93.2522 169.229 93.1197C169.269 92.9835 169.339 92.8571 169.434 92.7492C169.534 92.6362 169.672 92.5611 169.823 92.5374C169.672 92.4679 169.542 92.3606 169.447 92.2264C169.373 92.1128 169.328 91.9833 169.317 91.8492C169.317 91.7135 169.3 91.5679 169.3 91.419V90.701C169.285 90.4239 169.365 90.1496 169.526 89.9202C169.676 89.7255 169.883 89.5791 170.121 89.4999C170.372 89.4127 170.637 89.3691 170.903 89.3709H172.161C172.43 89.3685 172.697 89.4122 172.951 89.4999C173.186 89.5802 173.392 89.7265 173.542 89.9202C173.703 90.1496 173.783 90.4239 173.768 90.701V91.419C173.766 91.4999 173.759 91.5805 173.747 91.6606C173.736 91.7728 173.713 91.8837 173.679 91.9915C173.646 92.097 173.591 92.195 173.518 92.2793C173.446 92.3604 173.344 92.4123 173.234 92.4249C173.325 92.4403 173.411 92.4732 173.488 92.5215C173.565 92.5698 173.631 92.6326 173.682 92.7061C173.772 92.8395 173.832 92.9893 173.86 93.1462C173.885 93.2761 173.899 93.4078 173.901 93.54V94.3903C173.924 94.72 173.84 95.0484 173.662 95.33C173.506 95.5353 173.283 95.6835 173.029 95.7502C172.756 95.8237 172.473 95.8593 172.188 95.8561L170.975 95.8462ZM171.279 94.44H171.741C171.936 94.44 172.052 94.4036 172.083 94.3341C172.13 94.2454 172.153 94.146 172.147 94.0462V93.6425C172.151 93.5376 172.115 93.435 172.045 93.3547C172.007 93.3152 171.961 93.2843 171.91 93.2642C171.858 93.2442 171.803 93.2355 171.748 93.2389H171.279C171.215 93.2377 171.152 93.2478 171.091 93.2686C171.042 93.2867 170.999 93.3163 170.965 93.3547C170.931 93.3921 170.905 93.436 170.89 93.4837C170.872 93.5349 170.863 93.5885 170.862 93.6425V94.0462C170.856 94.1009 170.861 94.1562 170.877 94.209C170.893 94.2618 170.919 94.3111 170.955 94.3539C171.053 94.4244 171.175 94.4552 171.296 94.44H171.279ZM171.279 91.8326H171.741C171.819 91.8384 171.897 91.8223 171.966 91.7863C171.99 91.7675 172.009 91.7443 172.023 91.7182C172.037 91.6921 172.046 91.6635 172.048 91.6341C172.064 91.55 172.07 91.4647 172.069 91.3793V91.1113C172.069 90.9459 172.035 90.8499 171.966 90.8201C171.895 90.7904 171.818 90.7757 171.741 90.7771H171.279C171.196 90.7729 171.112 90.7888 171.037 90.8234C170.979 90.8565 170.951 90.9525 170.951 91.1113V91.3793C170.933 91.5107 170.959 91.6443 171.026 91.7598C171.061 91.7876 171.102 91.8083 171.145 91.8208C171.189 91.8333 171.234 91.8373 171.279 91.8326ZM171.508 87.2533C172.603 87.2513 173.674 87.5638 174.585 88.1512C175.497 88.7387 176.208 89.5746 176.628 90.5533C177.048 91.532 177.16 92.6094 176.947 93.6492C176.735 94.689 176.209 95.6444 175.435 96.3946C174.662 97.1448 173.676 97.6559 172.602 97.8634C171.528 98.0709 170.415 97.9654 169.403 97.5603C168.392 97.1551 167.527 96.4685 166.918 95.5874C166.31 94.7062 165.985 93.6701 165.985 92.6102C165.985 91.19 166.567 89.828 167.604 88.8234C168.641 87.8189 170.048 87.2541 171.515 87.2533H171.508Z" fill="#023047"/>
</g>
<g clip-path="url(#clip2_69_74)">
<rect width="13.9854" height="9.32361" rx="3" transform="matrix(-0.9861 0.166154 0.166154 0.9861 49.9915 109.257)" fill="black"/>
<ellipse rx="3.26326" ry="5.59417" transform="matrix(-0.9861 0.166154 0.166154 0.9861 32.208 107.526)" fill="#219EBC"/>
<rect width="16.7825" height="7.60485" transform="matrix(-0.981976 0.189004 0.189004 0.981976 48.6324 101.726)" fill="#219EBC"/>
<rect width="7.45889" height="12.1207" rx="3" transform="matrix(-0.9861 0.166154 0.166154 0.9861 54.8782 98.9788)" fill="#219EBC"/>
<rect width="5.30961" height="29.943" transform="matrix(-0.866367 0.499409 0.499409 0.866367 18.2215 80.6513)" fill="#219EBC"/>
<path d="M19.4215 79.9591C19.2076 79.5756 18.7276 79.4383 18.348 79.6522C17.9695 79.8667 17.8349 80.3506 18.048 80.7343C19.427 83.1983 20.7941 85.691 22.1702 88.1795L19.0681 90.0416L14.8695 82.3777C14.6597 81.9926 14.1798 81.8508 13.799 82.0622C13.4172 82.2729 13.279 82.7565 13.4889 83.1416L23.863 102.08C23.8734 102.099 23.8838 102.12 23.8959 102.139L24.9998 104.154C27.841 108.82 29.8219 112.073 33.2521 113.785C33.6433 113.979 34.1152 113.818 34.3062 113.424C34.4973 113.03 34.3361 112.553 33.9458 112.359C30.9291 110.854 29.0467 107.764 26.3487 103.332L25.6231 102.009L28.9427 99.9617C31.6554 104.225 34.4112 106.778 40.9558 104.61C40.9891 104.599 41.0203 104.586 41.0513 104.572L50.8372 100.763C52.0519 100.339 53.0034 100.303 53.6597 100.698C54.3148 101.093 54.7562 101.966 54.9624 103.362C55 103.83 55.0318 104.154 55.0639 104.475C55.2805 106.668 55.4893 108.788 54.0559 110.548L54.0534 110.549C53.8976 110.74 53.7276 110.915 53.5432 111.072C53.3502 111.235 53.1452 111.379 52.9255 111.504C52.546 111.718 52.4124 112.203 52.6254 112.585C52.676 112.677 52.7439 112.757 52.8252 112.822C52.9065 112.886 52.9997 112.934 53.0993 112.963C53.1989 112.991 53.3031 113 53.4058 112.987C53.5085 112.975 53.6078 112.943 53.6979 112.892C54.0179 112.711 54.3056 112.51 54.563 112.291C54.8225 112.071 55.0615 111.827 55.2768 111.563L55.2748 111.561C57.1251 109.289 56.8838 106.845 56.6347 104.318C56.5943 103.912 56.5536 103.503 56.5318 103.233L56.5242 103.152C56.2455 101.237 55.5465 99.9823 54.463 99.3293C53.3786 98.6756 51.9874 98.6732 50.3208 99.2573C47.3578 100.47 43.4412 102.154 40.4621 103.093C33.8684 105.278 31.7186 101.628 28.7254 96.5497L28.3427 95.9002L19.4215 79.9591ZM22.9405 89.5709C24.395 92.1908 25.8642 94.7993 27.371 97.3598C27.6218 97.785 27.8668 98.2014 28.1099 98.6066L24.8581 100.613L19.832 91.4367L22.9405 89.5709V89.5709ZM49.5553 111.452C49.4237 111.739 49.0037 112.078 48.3985 112.428C47.2969 113.065 45.6966 113.615 44.0147 113.963C42.3295 114.311 40.5773 114.456 39.1772 114.28C38.2824 114.168 37.5623 113.936 37.167 113.555C37.738 112.35 39.5837 111.416 41.6969 110.865C42.8363 110.567 44.0364 110.39 45.1588 110.345C46.2646 110.302 47.2976 110.384 48.1232 110.607C48.84 110.799 49.3619 111.081 49.5553 111.452V111.452ZM37.3828 115.483C37.863 115.663 38.4059 115.788 38.9928 115.861C40.5607 116.057 42.493 115.902 44.3337 115.522C46.1776 115.141 47.9469 114.529 49.1836 113.814C49.4454 113.662 49.6867 113.504 49.9039 113.338L50.3191 115.802L50.3226 115.802L50.3387 115.898C50.3747 116.112 50.3798 116.136 50.2194 116.368L50.1421 116.473C49.1306 117.79 46.6546 118.665 44.135 119.026C41.618 119.386 39.1291 119.23 38.0714 118.484L38.0101 118.439C37.8511 118.314 37.8408 118.242 37.813 118.067L37.7839 117.884L37.7873 117.883L37.3828 115.483V115.483ZM41.2985 109.319C38.5237 110.042 36.0921 111.452 35.5328 113.424C35.4879 113.552 35.4763 113.689 35.4989 113.823L36.2273 118.146L36.2307 118.145L36.2565 118.309C36.3526 118.931 36.3917 119.184 37.0447 119.696L37.1729 119.79C38.557 120.762 41.4938 121.01 44.3634 120.6C47.2331 120.19 50.1107 119.118 51.3912 117.452L51.5138 117.282C52.0428 116.516 52.0274 116.425 51.8918 115.636L51.8757 115.54L51.8791 115.54L51.1608 111.276L51.1459 111.209C50.867 110.133 49.8856 109.433 48.5207 109.066C47.5508 108.805 46.356 108.707 45.0914 108.756C43.8434 108.806 42.5281 108.998 41.2985 109.319V109.319Z" fill="#023047"/>
</g>
</g>
<g filter="url(#filter2_d_69_74)">
<path d="M90 177C90 165.402 99.402 156 111 156V156C122.598 156 132 165.402 132 177V177C132 188.598 122.598 198 111 198V198C99.402 198 90 188.598 90 177V177Z" fill="#E0E0E0"/>
<path d="M111 156C116.8 156 122.05 158.352 125.848 162.152C129.645 165.953 132 171.203 132 177C132 182.8 129.648 188.05 125.848 191.848C122.047 195.648 116.797 198 111 198C105.2 198 99.9497 195.648 96.1523 191.848C92.3516 188.05 90 182.8 90 177C90 171.2 92.3516 165.95 96.1523 162.152C99.9497 158.352 105.2 156 111 156ZM114.832 180.179C113.15 183.45 111.468 186.092 109.147 188.208C106.847 190.306 103.952 191.861 99.8506 192.976C101.737 194.295 103.867 195.29 106.16 195.874C107.08 195.843 108.006 195.686 108.915 195.426C112.261 194.473 115.368 192.162 117.638 189.756C119.846 187.411 121.23 185.053 121.206 183.856C120.225 182.971 119.2 182.226 118.126 181.614C117.074 181.016 115.977 180.541 114.832 180.179ZM98.374 191.837C98.4458 191.79 98.5278 191.752 98.6167 191.731C102.917 190.675 105.853 189.165 108.125 187.09C110.217 185.179 111.779 182.766 113.334 179.779C111.711 179.413 110.005 179.256 108.221 179.276C106.037 181.402 103.675 182.985 101.149 184.058C101.136 184.065 101.122 184.068 101.108 184.075C98.7432 185.073 96.2344 185.624 93.5923 185.753C94.5322 187.62 95.7627 189.315 97.2256 190.778C97.5947 191.144 97.9775 191.499 98.374 191.837ZM122.392 182.889C122.419 182.91 122.443 182.934 122.467 182.958C124.033 184.42 125.479 186.222 126.798 188.402C128.124 186.567 129.139 184.489 129.765 182.25C127.174 177.66 123.999 174.816 120.574 173.165C117.146 171.511 113.447 171.039 109.817 171.203C109.226 173.042 108.85 175.195 108.765 177.762C112.456 177.793 115.833 178.565 118.875 180.302C120.105 181.002 121.278 181.86 122.392 182.889ZM122.484 185.121C121.965 186.693 120.622 188.792 118.738 190.792C116.588 193.075 113.71 195.283 110.556 196.476C110.703 196.479 110.853 196.482 111 196.482C116.38 196.482 121.25 194.302 124.774 190.778C125.126 190.426 125.468 190.06 125.793 189.681C124.768 187.91 123.664 186.399 122.484 185.121ZM110.388 169.668C114.039 169.576 117.75 170.12 121.23 171.798C124.549 173.397 127.639 176.022 130.233 180.097C130.394 179.088 130.479 178.053 130.479 177C130.479 173.958 129.782 171.08 128.538 168.513C126.589 167.013 124.337 165.806 122.023 164.958C119.624 164.08 117.169 163.584 114.92 163.54C114.907 163.54 114.896 163.54 114.883 163.54C113.095 165.15 111.502 167.064 110.388 169.668ZM116.585 162.132C118.53 162.33 120.563 162.812 122.546 163.537C123.971 164.06 125.376 164.712 126.709 165.478C126.121 164.678 125.475 163.926 124.774 163.226C123.363 161.814 121.739 160.621 119.952 159.695C119.784 159.811 119.555 159.972 119.22 160.211C118.335 160.836 117.45 161.465 116.585 162.132ZM97.2017 183.744C95.3252 180.315 94.2861 176.733 94.3579 172.95C94.4126 170.031 95.1304 167.006 96.6274 163.848C93.4556 167.313 91.521 171.931 91.521 177C91.521 179.567 92.0166 182.018 92.9189 184.26C94.3921 184.229 95.8208 184.058 97.2017 183.744ZM100.035 160.895C100.028 160.905 100.025 160.912 100.018 160.922C97.2187 165.205 95.9404 169.2 95.8687 172.97C95.8003 176.597 96.8394 180.035 98.7056 183.34C99.3208 183.149 99.9258 182.93 100.521 182.677C100.531 182.67 100.544 182.667 100.555 182.66C101.361 182.318 102.151 181.918 102.92 181.464C101.02 177.509 100.579 172.929 101.799 168.445C102.838 164.634 105.073 160.891 108.628 157.665C105.47 158.047 102.544 159.186 100.035 160.895ZM111.137 157.521C111.116 157.542 111.092 157.565 111.065 157.583C106.902 160.86 104.359 164.815 103.262 168.841C102.158 172.909 102.527 177.051 104.202 180.64C105.251 179.912 106.263 179.071 107.24 178.111C107.486 166.664 112.972 162.778 118.349 158.974L118.369 158.963C116.137 158.047 113.697 157.538 111.137 157.521Z" fill="#023047"/>
</g>
<g filter="url(#filter3_d_69_74)">
<path d="M142 147C142 135.954 150.954 127 162 127V127C173.046 127 182 135.954 182 147V147C182 158.046 173.046 167 162 167V167C150.954 167 142 158.046 142 147V147Z" fill="#E9E9E9"/>
<path fill-rule="evenodd" clip-rule="evenodd" d="M162 127C167.524 127 172.524 129.24 176.141 132.859C179.76 136.479 182 141.479 182 147C182 152.524 179.76 157.524 176.141 161.141C172.521 164.76 167.521 167 162 167C156.479 167 151.476 164.76 147.859 161.141C144.24 157.524 142 152.524 142 147C142 141.476 144.24 136.476 147.859 132.859C151.476 129.24 156.476 127 162 127ZM167.016 165.112L166.977 165.086L169.22 157.57L164.594 152.439L159.142 152.391L154.819 157.801L156.987 165.066L156.938 165.099C158.549 165.548 160.245 165.789 162 165.789C163.738 165.789 165.421 165.555 167.016 165.112ZM145.978 156.821L153.901 156.86L158.042 151.674L156.329 146.427L149.357 143.4L143.23 147.859C143.377 151.134 144.363 154.191 145.978 156.821ZM147.459 135.099L149.868 142.306L156.372 145.132L161.398 141.235V133.816L155.187 129.484C152.739 130.438 150.538 131.889 148.712 133.715C148.273 134.155 147.853 134.617 147.459 135.099ZM168.595 129.399L162.605 133.761V141.225L167.326 144.874L174.1 141.971L176.437 134.975C176.072 134.536 175.688 134.116 175.285 133.712C173.406 131.834 171.131 130.35 168.595 129.399ZM180.766 147.951L180.76 147.954L174.256 143.217L167.807 145.981L165.828 151.85L170.298 156.808C170.317 156.827 170.327 156.85 170.333 156.876L178.016 156.84C179.617 154.23 180.604 151.199 180.766 147.951Z" fill="#023047"/>
</g>
<g filter="url(#filter4_d_69_74)">
<path d="M39 146C39 134.402 48.402 125 60 125V125C71.598 125 81 134.402 81 146V146C81 157.598 71.598 167 60 167V167C48.402 167 39 157.598 39 146V146Z" fill="#CE1010"/>
<path d="M39.0718 144.253C39.0718 144.185 39.0752 144.117 39.0889 144.048C39.5503 139.031 41.7822 134.519 45.1523 131.152C48.9497 127.352 54.1997 125 60 125C60.2222 125 60.4443 125.003 60.6665 125.01C60.7622 125 60.8613 125.003 60.9604 125.021C66.3779 125.267 71.2588 127.56 74.8477 131.152C78.6484 134.953 81 140.203 81 146C81 151.8 78.6484 157.05 74.8477 160.848C74.6665 161.029 74.4854 161.207 74.2974 161.377C74.1982 161.545 74.0547 161.675 73.8838 161.75C70.1821 165.014 65.3218 166.997 59.9966 166.997C59.8564 166.997 59.7163 166.993 59.5762 166.993C59.5112 167 59.4497 166.997 59.3882 166.99C53.8306 166.833 48.8164 164.515 45.1489 160.848C44.8208 160.52 44.5029 160.178 44.1953 159.829C44.0688 159.74 43.9697 159.621 43.9048 159.491C40.8457 155.84 39 151.137 39 146C39 145.412 39.0239 144.831 39.0718 144.253ZM40.9688 143.768C42.7939 144.906 44.749 145.819 46.7793 146.537C46.6938 143.006 46.0034 139.027 44.6362 134.553C42.6709 137.182 41.3687 140.336 40.9688 143.768ZM46.0342 132.885C47.7773 138.262 48.6011 142.982 48.6216 147.128C50.2827 147.61 51.9849 147.972 53.6938 148.222C53.6118 146.957 53.5947 145.713 53.6392 144.482C53.8647 138.183 55.6968 132.318 59.0737 126.863C54.1519 127.099 49.7153 129.187 46.4512 132.451C46.311 132.595 46.1709 132.738 46.0342 132.885ZM61.2373 126.88C57.645 132.328 55.6968 138.21 55.4712 144.547C55.4268 145.829 55.4507 147.128 55.5464 148.447C57.0845 148.601 58.6226 148.673 60.1333 148.666C60.8682 148.663 61.5928 148.642 62.314 148.604C62.1567 146.161 62.6079 143.638 63.5649 141.198C65.0962 137.305 67.9263 133.603 71.6143 130.763C68.6987 128.538 65.127 127.129 61.2373 126.88ZM73.0498 131.973C69.4746 134.635 66.7334 138.159 65.2773 141.871C64.4194 144.062 64.0093 146.311 64.1494 148.478C70.5684 147.89 76.1328 146.003 79.0142 143.618C78.4775 139.28 76.4883 135.391 73.5488 132.455C73.3848 132.291 73.2173 132.13 73.0498 131.973ZM79.1577 145.788C75.8594 148.006 70.4727 149.719 64.3989 150.293C64.7236 151.793 65.3355 153.236 66.2754 154.562C67.7485 156.644 70.0317 158.462 73.2617 159.829C73.3574 159.737 73.4531 159.645 73.5488 159.549C77.0146 156.083 79.1611 151.291 79.1611 146C79.1577 145.928 79.1577 145.86 79.1577 145.788ZM71.7236 161.155C68.5928 159.692 66.3164 157.789 64.7783 155.618C63.6367 154.005 62.9087 152.251 62.5498 150.43C61.7534 150.474 60.9468 150.498 60.1333 150.501C58.6807 150.508 57.2041 150.443 55.7241 150.307C56.2915 155.013 57.7407 159.962 60.0923 165.158C64.4741 165.137 68.5073 163.647 71.7236 161.155ZM58.0415 165.059C55.7686 159.843 54.3809 154.856 53.8579 150.091C52.084 149.849 50.3135 149.497 48.5771 149.018C48.3584 152.812 47.4253 156.097 45.8701 158.934C46.0615 159.142 46.2563 159.347 46.4546 159.545C49.4863 162.581 53.5332 164.601 58.0415 165.059ZM44.5986 157.399C45.877 154.832 46.6255 151.875 46.7656 148.471C44.7114 147.788 42.7187 146.916 40.8423 145.833C40.8423 145.887 40.8423 145.942 40.8423 146C40.8423 150.269 42.2368 154.213 44.5986 157.399Z" fill="#620000"/>
</g>
<defs>
<filter id="filter0_d_69_74" x="-4" y="0" width="224" height="224" filterUnits="userSpaceOnUse" color-interpolation-filters="sRGB">
<feFlood flood-opacity="0" result="BackgroundImageFix"/>
<feColorMatrix in="SourceAlpha" type="matrix" values="0 0 0 0 0 0 0 0 0 0 0 0 0 0 0 0 0 0 127 0" result="hardAlpha"/>
<feOffset dy="4"/>
<feGaussianBlur stdDeviation="2"/>
<feComposite in2="hardAlpha" operator="out"/>
<feColorMatrix type="matrix" values="0 0 0 0 0 0 0 0 0 0 0 0 0 0 0 0 0 0 0.25 0"/>
<feBlend mode="normal" in2="BackgroundImageFix" result="effect1_dropShadow_69_74"/>
<feBlend mode="normal" in="SourceGraphic" in2="effect1_dropShadow_69_74" result="shape"/>
</filter>
<filter id="filter1_i_69_74" x="6.75" y="2.73315" width="204.25" height="208.267" filterUnits="userSpaceOnUse" color-interpolation-filters="sRGB">
<feFlood flood-opacity="0" result="BackgroundImageFix"/>
<feBlend mode="normal" in="SourceGraphic" in2="BackgroundImageFix" result="shape"/>
<feColorMatrix in="SourceAlpha" type="matrix" values="0 0 0 0 0 0 0 0 0 0 0 0 0 0 0 0 0 0 127 0" result="hardAlpha"/>
<feOffset dy="-14"/>
<feGaussianBlur stdDeviation="2"/>
<feComposite in2="hardAlpha" operator="arithmetic" k2="-1" k3="1"/>
<feColorMatrix type="matrix" values="0 0 0 0 0 0 0 0 0 0 0 0 0 0 0 0 0 0 0.25 0"/>
<feBlend mode="normal" in2="shape" result="effect1_innerShadow_69_74"/>
</filter>
<filter id="filter2_d_69_74" x="86" y="156" width="50" height="50" filterUnits="userSpaceOnUse" color-interpolation-filters="sRGB">
<feFlood flood-opacity="0" result="BackgroundImageFix"/>
<feColorMatrix in="SourceAlpha" type="matrix" values="0 0 0 0 0 0 0 0 0 0 0 0 0 0 0 0 0 0 127 0" result="hardAlpha"/>
<feOffset dy="4"/>
<feGaussianBlur stdDeviation="2"/>
<feComposite in2="hardAlpha" operator="out"/>
<feColorMatrix type="matrix" values="0 0 0 0 0 0 0 0 0 0 0 0 0 0 0 0 0 0 0.25 0"/>
<feBlend mode="normal" in2="BackgroundImageFix" result="effect1_dropShadow_69_74"/>
<feBlend mode="normal" in="SourceGraphic" in2="effect1_dropShadow_69_74" result="shape"/>
</filter>
<filter id="filter3_d_69_74" x="138" y="127" width="48" height="48" filterUnits="userSpaceOnUse" color-interpolation-filters="sRGB">
<feFlood flood-opacity="0" result="BackgroundImageFix"/>
<feColorMatrix in="SourceAlpha" type="matrix" values="0 0 0 0 0 0 0 0 0 0 0 0 0 0 0 0 0 0 127 0" result="hardAlpha"/>
<feOffset dy="4"/>
<feGaussianBlur stdDeviation="2"/>
<feComposite in2="hardAlpha" operator="out"/>
<feColorMatrix type="matrix" values="0 0 0 0 0 0 0 0 0 0 0 0 0 0 0 0 0 0 0.25 0"/>
<feBlend mode="normal" in2="BackgroundImageFix" result="effect1_dropShadow_69_74"/>
<feBlend mode="normal" in="SourceGraphic" in2="effect1_dropShadow_69_74" result="shape"/>
</filter>
<filter id="filter4_d_69_74" x="35" y="125" width="50" height="50" filterUnits="userSpaceOnUse" color-interpolation-filters="sRGB">
<feFlood flood-opacity="0" result="BackgroundImageFix"/>
<feColorMatrix in="SourceAlpha" type="matrix" values="0 0 0 0 0 0 0 0 0 0 0 0 0 0 0 0 0 0 127 0" result="hardAlpha"/>
<feOffset dy="4"/>
<feGaussianBlur stdDeviation="2"/>
<feComposite in2="hardAlpha" operator="out"/>
<feColorMatrix type="matrix" values="0 0 0 0 0 0 0 0 0 0 0 0 0 0 0 0 0 0 0.25 0"/>
<feBlend mode="normal" in2="BackgroundImageFix" result="effect1_dropShadow_69_74"/>
<feBlend mode="normal" in="SourceGraphic" in2="effect1_dropShadow_69_74" result="shape"/>
</filter>
<clipPath id="clip0_69_74">
<rect width="143" height="143" fill="white" transform="translate(38 42)"/>
</clipPath>
<clipPath id="clip1_69_74">
<rect width="42" height="31" fill="white" transform="translate(160 85)"/>
</clipPath>
<clipPath id="clip2_69_74">
<rect width="39.1592" height="44.7533" fill="white" transform="matrix(-0.9861 0.166154 0.166154 0.9861 51.6149 74)"/>
</clipPath>
</defs>
</svg>
