<svg width="242" height="241" viewBox="0 0 242 241" fill="none" xmlns="http://www.w3.org/2000/svg">
<ellipse cx="111.957" cy="106.364" rx="60.6535" ry="27.7995" transform="rotate(-13.6685 111.957 106.364)" fill="#023047"/>
<path d="M207.85 69.2055C201.617 65.6782 193.3 63.0492 183.536 61.5335C162.686 58.3151 135.13 60.13 106.203 67.8809C77.2424 75.6125 52.4481 87.8504 36.0238 101.076C27.7915 107.678 21.6881 114.525 18.0932 121.077C14.5596 127.53 13.4952 133.531 14.9573 138.935C16.4034 144.374 20.3059 148.996 26.6126 152.861C32.9689 156.71 41.6762 159.591 52.1417 161.208C72.9863 164.436 100.552 162.605 129.479 154.854C158.406 147.103 183.194 134.906 199.651 121.655C207.887 115.055 213.987 108.206 217.567 101.695C221.095 95.198 222.165 89.2404 220.696 83.8103C219.229 78.3767 215.34 73.731 209.051 69.9124C208.655 69.6701 208.254 69.4345 207.85 69.2055V69.2055ZM228.107 85.6843C228.841 92.0797 227.171 98.6882 223.67 105.062C219.494 112.682 212.753 120.1 203.992 127.066C186.566 141.144 161.032 153.626 131.312 161.589C101.539 169.567 73.2046 171.491 51.0548 168.046C39.9844 166.393 30.457 163.306 23.0078 158.826C18.0168 155.811 13.9861 152.053 11.2528 147.659C11.3468 148.115 11.4475 148.576 11.5776 149.008C15.245 162.748 30.1264 172.86 52.5208 177.43C74.8959 182.034 104.312 180.868 134.951 172.63C165.57 164.426 191.608 150.761 208.684 135.586C225.826 120.451 233.625 104.234 229.931 90.5009C229.499 88.8481 228.868 87.2319 228.107 85.6843V85.6843ZM161.253 83.4822C163.868 84.992 165.938 87.2148 166.703 90.0705C167.652 93.6137 166.378 97.2141 164.132 100.253C161.919 103.312 158.646 106.116 154.562 108.854C146.394 114.33 134.885 119.397 121.612 122.954C108.338 126.511 95.8376 127.876 86.0256 127.218C81.1532 126.908 76.8832 126.097 73.4376 124.555C69.9726 123.046 67.069 120.565 66.1196 117.022C65.1702 113.479 66.4443 109.878 68.6907 106.839C70.9035 103.78 74.1958 100.943 78.2799 98.2048C86.4481 92.7287 97.9372 87.6947 111.211 84.1381C124.484 80.5814 137.004 79.1822 146.816 79.8406C151.722 80.1697 155.939 80.9952 159.385 82.5375C160.027 82.8189 160.65 83.1338 161.253 83.4822V83.4822Z" fill="#8ECAE6"/>
<path d="M88.4359 124.132C86.7904 124.727 85.0974 125.044 83.3569 125.083C81.6164 125.122 80.5027 124.468 80.0157 123.123C79.5287 121.777 79.8937 120.884 81.1107 120.444C81.2907 120.379 82.0916 120.355 83.5135 120.374C84.9354 120.392 86.1006 120.237 87.0091 119.908C87.9261 119.576 88.245 119.025 87.9658 118.253C87.7828 117.748 87.318 117.441 86.5714 117.333C85.8217 117.217 84.8187 117.177 83.5626 117.215C82.3151 117.25 81.5158 117.224 81.1647 117.138C79.5487 116.744 78.4413 115.72 77.8426 114.066C77.2408 112.403 77.2981 110.861 78.0143 109.438C78.711 108.042 79.7835 107.082 81.2319 106.558C82.6803 106.034 83.9976 105.736 85.1837 105.666C87.4187 105.574 88.564 106.221 88.6196 107.606C88.6806 108.98 88.1771 109.812 87.109 110.101C87.0147 110.135 86.4369 110.146 85.3756 110.133C84.3142 110.119 83.4193 110.244 82.6908 110.508C81.9709 110.769 81.7396 111.255 81.9971 111.966C82.1615 112.42 82.6084 112.704 83.3379 112.818C84.0729 112.921 85.0688 112.967 86.3256 112.958C87.5794 112.941 88.3935 112.98 88.7679 113.078C90.4104 113.491 91.5511 114.581 92.1901 116.346C92.826 118.103 92.7644 119.701 92.0054 121.139C91.2799 122.535 90.09 123.533 88.4359 124.132ZM110.123 112.705C110.346 113.323 110.106 114.199 109.403 115.336C108.7 116.473 107.015 117.523 104.35 118.488C101.685 119.453 99.1912 119.42 96.8698 118.389C94.5454 117.35 92.8977 115.489 91.9268 112.807C90.9558 110.124 91.0265 107.641 92.1388 105.358C93.248 103.067 95.1525 101.432 97.8522 100.455C100.56 99.4748 102.531 99.2025 103.765 99.6381C105.007 100.071 105.741 100.6 105.968 101.225C106.191 101.842 106.186 102.47 105.951 103.107C105.713 103.736 105.346 104.14 104.849 104.32C104.36 104.497 103.512 104.591 102.304 104.601C101.105 104.609 100.24 104.709 99.7086 104.901C96.8289 105.943 95.9304 107.96 97.013 110.951C98.0956 113.942 100.077 114.917 102.956 113.874C103.488 113.682 104.217 113.205 105.143 112.443C106.078 111.679 106.789 111.208 107.278 111.031C107.775 110.851 108.318 110.931 108.906 111.27C109.491 111.601 109.897 112.08 110.123 112.705ZM127.537 99.9179C128.508 102.6 128.424 105.088 127.286 107.38C126.145 109.664 124.242 111.288 121.577 112.253C118.911 113.218 116.418 113.185 114.096 112.154C111.772 111.115 110.124 109.254 109.153 106.572C108.182 103.889 108.253 101.406 109.365 99.1232C110.475 96.8316 112.379 95.1972 115.079 94.22C117.787 93.2398 120.296 93.2767 122.607 94.3306C124.923 95.3729 126.566 97.2353 127.537 99.9179ZM120.276 98.8966C119.197 98.3273 118.015 98.2753 116.73 98.7406C115.444 99.2059 114.566 100.008 114.097 101.148C113.624 102.278 113.623 103.495 114.095 104.798C114.563 106.092 115.339 107.018 116.423 107.575C117.507 108.133 118.688 108.181 119.965 107.719C121.25 107.253 122.125 106.457 122.589 105.329C123.062 104.198 123.064 102.986 122.596 101.692C122.127 100.398 121.354 99.4659 120.276 98.8966ZM139.831 97.1259L143.586 99.5471C144.143 99.9077 144.524 100.371 144.728 100.936C144.933 101.502 144.789 102.175 144.296 102.954C143.799 103.725 143.264 104.215 142.69 104.422C142.115 104.63 141.445 104.48 140.68 103.972L134.54 99.9424L136.112 104.288C136.652 105.779 136.074 106.832 134.377 107.446C132.68 108.06 131.561 107.621 131.021 106.13L126.359 93.2488C125.819 91.7575 126.398 90.7048 128.095 90.0906L133.854 88.006C135.277 87.4911 136.658 87.6115 137.998 88.3673C139.335 89.1146 140.23 90.1138 140.683 91.3651C141.492 93.602 141.208 95.5223 139.831 97.1259ZM131.906 92.666L133.339 96.6256L134.805 96.0952C136.245 95.574 136.726 94.6535 136.248 93.3337C135.77 92.0138 134.811 91.6145 133.372 92.1356L131.906 92.666ZM155.434 99.8242C156.754 99.3465 157.167 98.4263 156.674 97.0636C156.181 95.7008 155.274 95.2583 153.955 95.7361L150.329 97.0482L149.399 94.4771L152.51 93.351C153.83 92.8733 154.241 91.9488 153.745 90.5776C153.249 89.2063 152.341 88.7595 151.021 89.2372L147.91 90.3632L147.007 87.8692L150.632 86.5571C151.952 86.0794 152.366 85.1592 151.872 83.7964C151.379 82.4337 150.473 81.9912 149.153 82.4689L142.982 84.7024C141.285 85.3166 140.706 86.3693 141.246 87.8606L145.908 100.742C146.448 102.233 147.567 102.672 149.263 102.058L155.434 99.8242Z" fill="#8ECAE6"/>
</svg>
