<svg xmlns="http://www.w3.org/2000/svg" xmlns:xlink="http://www.w3.org/1999/xlink" width="216" height="219" fill="none" xmlns:v="https://vecta.io/nano"><style><![CDATA[.B{color-interpolation-filters:sRGB}.C{flood-opacity:0}.D{fill:#023047}]]></style><g filter="url(#A)"><g filter="url(#B)"><path d="M211 54.409C211 55.974 209.842 211 108.875 211S6.75 55.974 6.75 54.409c0-2.723 1.634-5.174 4.153-6.264l95.317-40.85c1.702-.749 3.608-.749 5.31 0l95.317 40.85c2.519 1.089 4.153 3.54 4.153 6.264z" fill="#8ecae6"/></g><g style="mix-blend-mode:soft-light" clip-path="url(#F)"><path d="M168.561 42.571c-6.505 0-11.794 5.288-11.794 11.792 0 4.253 2.282 7.956 5.668 10.032l-22.549 22.439-23.189-23.193c2.774-2.155 4.599-5.493 4.599-9.278 0-6.505-5.289-11.792-11.793-11.792a11.81 11.81 0 0 0-11.796 11.792c0 3.785 1.822 7.116 4.6 9.278L79.096 86.858 56.204 64.033c3.588-2.028 6.037-5.829 6.037-10.231A11.81 11.81 0 0 0 50.448 42c-6.505 0-11.796 5.289-11.796 11.803 0 4.575 2.641 8.505 6.458 10.45v87.744c0 .247.102.468.143.703-.018.221-.114.421-.114.648 0 14.607 40.456 18.504 64.363 18.504s64.362-3.897 64.362-18.504c0-.227-.099-.427-.111-.648.035-.235.134-.456.134-.703V64.816c3.814-1.953 6.459-5.882 6.459-10.459.013-6.498-5.282-11.786-11.785-11.786zm0 8.984c1.549 0 2.813 1.258 2.813 2.808a2.82 2.82 0 0 1-2.813 2.816c-1.557 0-2.808-1.267-2.808-2.816a2.82 2.82 0 0 1 2.808-2.808zm-3.645 23.048v37.258L146.238 93.19l18.678-18.587zm-5.867 81.898c-8.446 3.135-25.516 6.376-49.54 6.376-24.033 0-41.097-3.241-49.543-6.376-2.977-1.112-4.898-2.194-5.654-3.124 1.39-1.719 6.689-3.978 15.359-5.86a138.56 138.56 0 0 1 11.146-1.902c4.235-.562 8.933-1.018 14.071-1.321 4.551-.276 9.404-.434 14.628-.434 5.148 0 9.957.158 14.46.421 5.112.304 9.804.749 14.032 1.312 4.265.555 8.067 1.216 11.355 1.924 8.669 1.872 13.969 4.13 15.349 5.86-.754.93-2.679 2.012-5.662 3.124zM54.102 124.568l25.007-25.016 23.971 23.899-12.199 12.143c-13.585 1.03-27.847 3.323-36.778 7.594v-18.62h0zm55.407 10.289l-5.223.07 5.156-5.118 5.139 5.118-5.072-.07zm18.461.731l-12.161-12.114 24.065-23.946 25.048 25.057v18.613c-8.967-4.293-23.327-6.586-36.952-7.61zm-18.461-84.033c1.545 0 2.813 1.258 2.813 2.808a2.82 2.82 0 0 1-2.813 2.816 2.82 2.82 0 0 1-2.81-2.816c0-1.55 1.265-2.808 2.81-2.808zm0 17.605l24.013 24.019-24.071 23.948-23.992-23.925 24.051-24.042zM72.746 93.208l-18.644 18.649V74.609l18.644 18.599zM50.455 50.986a2.82 2.82 0 0 1 2.808 2.816 2.81 2.81 0 0 1-2.808 2.807 2.81 2.81 0 0 1-2.811-2.807c-.001-1.554 1.257-2.816 2.811-2.816zm122.376 118.828c1.298 2.118.625 4.868-1.486 6.167-7.359 4.492-29.33 9.02-61.836 9.02-32.017 0-54.717-5.418-61.511-8.845-2.217-1.118-3.109-3.814-1.994-6.026 1.12-2.21 3.811-3.123 6.031-2.001 3.308 1.668 22.752 7.88 57.47 7.88 32.682 0 52.073-4.615 57.15-7.698 2.118-1.288 4.878-.614 6.177 1.503z" fill="#000"/></g><path d="M75.053 111.973a15.86 15.86 0 0 1-5.1-.834c-1.65-.556-2.475-1.55-2.475-2.981s.647-2.146 1.941-2.146c.191 0 .953.25 2.283.752s2.479.752 3.445.752c.975 0 1.463-.411 1.463-1.231 0-.538-.333-.984-.998-1.34-.665-.364-1.595-.743-2.789-1.134-1.185-.392-1.928-.689-2.229-.889-1.385-.921-2.078-2.261-2.078-4.02 0-1.768.579-3.199 1.736-4.293 1.13-1.075 2.465-1.613 4.006-1.613s2.88.169 4.02.506c2.133.674 2.99 1.672 2.57 2.994-.41 1.313-1.167 1.923-2.269 1.832-.1 0-.647-.187-1.641-.561s-1.878-.561-2.652-.561c-.766 0-1.148.378-1.148 1.135 0 .483.323.902.971 1.258.656.346 1.577.729 2.762 1.148 1.185.41 1.937.725 2.256.943 1.404.948 2.105 2.361 2.105 4.239 0 1.868-.602 3.349-1.805 4.443-1.157 1.066-2.616 1.6-4.375 1.6zm24.281-3.364c0 .657-.524 1.399-1.572 2.229s-2.99 1.244-5.824 1.244-5.168-.88-7-2.639c-1.832-1.768-2.748-4.078-2.748-6.931s.911-5.164 2.734-6.932c1.823-1.777 4.17-2.666 7.041-2.666 2.88 0 4.826.415 5.838 1.244 1.021.829 1.531 1.577 1.531 2.242 0 .656-.219 1.244-.656 1.764-.437.51-.921.766-1.449.766-.519 0-1.349-.2-2.488-.602-1.13-.401-1.978-.602-2.543-.602-3.062 0-4.594 1.59-4.594 4.771s1.531 4.772 4.594 4.772c.565 0 1.413-.201 2.543-.602 1.139-.401 1.969-.602 2.488-.602.529 0 1.012.26 1.449.78.438.51.656 1.098.656 1.763zm20.727-6.097c0 2.853-.926 5.163-2.776 6.931-1.85 1.759-4.193 2.639-7.027 2.639s-5.168-.88-7-2.639c-1.832-1.768-2.748-4.078-2.748-6.931s.911-5.164 2.734-6.932c1.823-1.777 4.17-2.666 7.041-2.666 2.88 0 5.227.889 7.041 2.666 1.823 1.768 2.735 4.079 2.735 6.932zm-6.481-3.432c-.82-.902-1.914-1.353-3.281-1.353s-2.466.456-3.295 1.367c-.83.902-1.244 2.046-1.244 3.431 0 1.377.414 2.511 1.244 3.405s1.923 1.34 3.281 1.34c1.367 0 2.461-.452 3.281-1.354.83-.902 1.245-2.042 1.245-3.418s-.411-2.516-1.231-3.418zm18.99 4.99l2.707 3.555c.401.529.602 1.094.602 1.695s-.365 1.185-1.094 1.75c-.729.556-1.399.834-2.01.834s-1.189-.369-1.736-1.107l-4.402-5.879v4.621c0 1.586-.903 2.379-2.707 2.379s-2.707-.793-2.707-2.379V95.84c0-1.586.902-2.379 2.707-2.379h6.125c1.513 0 2.771.583 3.773 1.75 1.003 1.158 1.504 2.402 1.504 3.733 0 2.379-.921 4.088-2.762 5.127zm-5.933-6.89v4.211h1.558c1.532 0 2.297-.702 2.297-2.106s-.765-2.106-2.297-2.106h-1.558zm19.687 14.738c1.404 0 2.106-.725 2.106-2.174s-.702-2.174-2.106-2.174h-3.855v-2.734h3.308c1.404 0 2.106-.729 2.106-2.188s-.702-2.187-2.106-2.187h-3.308v-2.652h3.855c1.404 0 2.106-.725 2.106-2.174s-.702-2.174-2.106-2.174h-6.562c-1.805 0-2.707.793-2.707 2.379v13.699c0 1.586.902 2.379 2.707 2.379h6.562z" class="D"/></g><g filter="url(#C)"><use xlink:href="#G" fill="#e0e0e0"/><path d="M111 156c5.8 0 11.05 2.352 14.848 6.152A20.95 20.95 0 0 1 132 177c0 5.8-2.352 11.05-6.152 14.848S116.797 198 111 198s-11.05-2.352-14.848-6.152S90 182.8 90 177s2.352-11.05 6.152-14.848S105.2 156 111 156zm3.832 24.179c-1.682 3.271-3.364 5.913-5.685 8.029-2.3 2.098-5.195 3.653-9.296 4.768a19.34 19.34 0 0 0 6.309 2.898c.92-.031 1.846-.188 2.755-.448 3.346-.953 6.453-3.264 8.723-5.67 2.208-2.345 3.592-4.703 3.568-5.9a17.61 17.61 0 0 0-3.08-2.242c-1.052-.598-2.149-1.073-3.294-1.435zm-16.458 11.658a.77.77 0 0 1 .243-.106c4.3-1.056 7.236-2.566 9.508-4.641 2.092-1.911 3.654-4.324 5.209-7.311-1.623-.366-3.329-.523-5.113-.503-2.184 2.126-4.546 3.709-7.072 4.782-.013.007-.027.01-.041.017-2.365.998-4.874 1.549-7.516 1.678a19.53 19.53 0 0 0 3.633 5.025 20.78 20.78 0 0 0 1.148 1.059zm24.018-8.948c.027.021.051.045.075.069 1.566 1.462 3.012 3.264 4.331 5.444 1.326-1.835 2.341-3.913 2.967-6.152-2.591-4.59-5.766-7.434-9.191-9.085s-7.127-2.126-10.757-1.962c-.591 1.839-.967 3.992-1.052 6.559 3.691.031 7.068.803 10.11 2.54 1.23.7 2.403 1.558 3.517 2.587zm.092 2.232c-.519 1.572-1.862 3.671-3.746 5.671-2.15 2.283-5.028 4.491-8.182 5.684l.444.006c5.38 0 10.25-2.18 13.774-5.704a19.59 19.59 0 0 0 1.019-1.097c-1.025-1.771-2.129-3.282-3.309-4.56zm-12.096-15.453c3.651-.092 7.362.452 10.842 2.13 3.319 1.599 6.409 4.224 9.003 8.299a19.65 19.65 0 0 0 .246-3.097c0-3.042-.697-5.92-1.941-8.487-1.949-1.5-4.201-2.707-6.515-3.555-2.399-.878-4.854-1.374-7.103-1.418h-.037c-1.788 1.61-3.381 3.524-4.495 6.128zm6.197-7.536c1.945.198 3.978.68 5.961 1.405a27.19 27.19 0 0 1 4.163 1.941c-.588-.8-1.234-1.552-1.935-2.252a19.5 19.5 0 0 0-4.822-3.531l-.732.516c-.885.625-1.77 1.254-2.635 1.921zm-19.383 21.612c-1.877-3.429-2.916-7.011-2.844-10.794.055-2.919.772-5.944 2.269-9.102-3.172 3.465-5.106 8.083-5.106 13.152 0 2.567.496 5.018 1.398 7.26 1.473-.031 2.902-.202 4.283-.516zm2.833-22.849c-.007.01-.01.017-.017.027-2.799 4.283-4.078 8.278-4.149 12.048-.068 3.627.971 7.065 2.837 10.37a19.14 19.14 0 0 0 1.815-.663c.01-.007.023-.01.034-.017.806-.342 1.596-.742 2.365-1.196-1.9-3.955-2.341-8.535-1.121-13.019 1.039-3.811 3.274-7.554 6.829-10.78-3.158.382-6.084 1.521-8.593 3.23zm11.102-3.374c-.021.021-.045.044-.072.062-4.163 3.277-6.706 7.232-7.803 11.258-1.104 4.068-.735 8.21.94 11.799a23.25 23.25 0 0 0 3.038-2.529c.246-11.447 5.732-15.333 11.109-19.137l.02-.011a19.34 19.34 0 0 0-7.232-1.442z" class="D"/></g><g filter="url(#D)"><path d="M142 147c0-11.046 8.954-20 20-20h0c11.046 0 20 8.954 20 20h0c0 11.046-8.954 20-20 20h0c-11.046 0-20-8.954-20-20h0z" fill="#e9e9e9"/><path fill-rule="evenodd" d="M162 127a19.93 19.93 0 0 1 14.141 5.859A19.94 19.94 0 0 1 182 147a19.93 19.93 0 0 1-5.859 14.141A19.94 19.94 0 0 1 162 167c-5.521 0-10.524-2.24-14.141-5.859a19.93 19.93 0 0 1 0-28.282A19.93 19.93 0 0 1 162 127zm5.016 38.112l-.039-.026 2.243-7.516-4.626-5.131-5.452-.048-4.323 5.41 2.168 7.265-.049.033a18.82 18.82 0 0 0 5.062.69c1.738 0 3.421-.234 5.016-.677zm-21.038-8.291l7.923.039 4.141-5.186-1.713-5.247-6.972-3.027-6.127 4.459c.147 3.275 1.133 6.332 2.748 8.962zm1.481-21.722l2.409 7.207 6.504 2.826 5.026-3.897v-7.419l-6.211-4.332c-2.448.954-4.649 2.405-6.475 4.231a18.89 18.89 0 0 0-1.253 1.384zm21.136-5.7l-5.99 4.362v7.464l4.721 3.649 6.774-2.903 2.337-6.996c-.365-.439-.749-.859-1.152-1.263-1.879-1.878-4.154-3.362-6.69-4.313zm12.171 18.552l-.006.003-6.504-4.737-6.449 2.764-1.979 5.869 4.47 4.958c.019.019.029.042.035.068l7.683-.036a18.75 18.75 0 0 0 2.75-8.889z" class="D"/></g><g filter="url(#E)"><use xlink:href="#G" x="-51" y="-31" fill="#ce1010"/><path d="M39.072 144.253a1.04 1.04 0 0 1 .017-.205c.461-5.017 2.693-9.529 6.063-12.896C48.95 127.352 54.2 125 60 125a21.16 21.16 0 0 1 .666.01 1.04 1.04 0 0 1 .294.011c5.417.246 10.298 2.539 13.887 6.131C78.648 134.953 81 140.203 81 146s-2.352 11.05-6.152 14.848c-.181.181-.362.359-.55.529-.099.168-.243.298-.414.373-3.702 3.264-8.562 5.247-13.887 5.247-.14 0-.28-.004-.42-.004a.84.84 0 0 1-.188-.003c-5.558-.157-10.572-2.475-14.239-6.142a22.15 22.15 0 0 1-.954-1.019c-.127-.089-.226-.208-.291-.338C40.846 155.84 39 151.137 39 146a21.12 21.12 0 0 1 .072-1.747zm1.897-.485c1.825 1.138 3.78 2.051 5.81 2.769-.085-3.531-.776-7.51-2.143-11.984-1.965 2.629-3.268 5.783-3.667 9.215zm5.065-10.883c1.743 5.377 2.567 10.097 2.587 14.243 1.661.482 3.363.844 5.072 1.094-.082-1.265-.099-2.509-.055-3.74.225-6.299 2.058-12.164 5.435-17.619-4.922.236-9.358 2.324-12.623 5.588l-.417.434zm15.203-6.005c-3.592 5.448-5.54 11.33-5.766 17.667a36.42 36.42 0 0 0 .075 3.9c1.538.154 3.076.226 4.587.219a44.85 44.85 0 0 0 2.181-.062c-.157-2.443.294-4.966 1.251-7.406 1.531-3.893 4.361-7.595 8.049-10.435-2.916-2.225-6.487-3.634-10.377-3.883zm11.813 5.093c-3.575 2.662-6.316 6.186-7.773 9.898-.858 2.191-1.268 4.44-1.128 6.607 6.419-.588 11.983-2.475 14.865-4.86-.537-4.338-2.526-8.227-5.465-11.163a21.49 21.49 0 0 0-.499-.482zm6.108 13.815c-3.298 2.218-8.685 3.931-14.759 4.505.325 1.5.937 2.943 1.877 4.269 1.473 2.082 3.756 3.9 6.986 5.267l.287-.28c3.466-3.466 5.612-8.258 5.612-13.549-.003-.072-.003-.14-.003-.212zm-7.434 15.367c-3.131-1.463-5.407-3.366-6.945-5.537a13.41 13.41 0 0 1-2.229-5.188 46.97 46.97 0 0 1-2.416.071 45.86 45.86 0 0 1-4.409-.194c.567 4.706 2.017 9.655 4.368 14.851 4.382-.021 8.415-1.511 11.631-4.003zm-13.682 3.904c-2.273-5.216-3.661-10.203-4.184-14.968-1.774-.242-3.544-.594-5.281-1.073-.219 3.794-1.152 7.079-2.707 9.916a20.03 20.03 0 0 0 .584.611 19.08 19.08 0 0 0 11.587 5.514zm-13.443-7.66c1.278-2.567 2.027-5.524 2.167-8.928-2.054-.683-4.047-1.555-5.923-2.638V146c0 4.269 1.395 8.213 3.756 11.399z" fill="#620000"/></g><defs><filter id="A" x="-4" y="0" width="224" height="224" filterUnits="userSpaceOnUse" class="B"><feFlood result="A" class="C"/><feColorMatrix in="SourceAlpha" values="0 0 0 0 0 0 0 0 0 0 0 0 0 0 0 0 0 0 127 0" result="B"/><feOffset dy="4"/><feGaussianBlur stdDeviation="2"/><feComposite in2="B" operator="out"/><feColorMatrix values="0 0 0 0 0 0 0 0 0 0 0 0 0 0 0 0 0 0 0.25 0"/><feBlend in2="A"/><feBlend in="SourceGraphic"/></filter><filter id="B" x="6.75" y="2.733" width="204.25" height="208.267" filterUnits="userSpaceOnUse" class="B"><feFlood class="C"/><feBlend in="SourceGraphic" result="B"/><feColorMatrix in="SourceAlpha" values="0 0 0 0 0 0 0 0 0 0 0 0 0 0 0 0 0 0 127 0" result="C"/><feOffset dy="-14"/><feGaussianBlur stdDeviation="2"/><feComposite in2="C" operator="arithmetic" k2="-1" k3="1"/><feColorMatrix values="0 0 0 0 0 0 0 0 0 0 0 0 0 0 0 0 0 0 0.25 0"/><feBlend in2="B"/></filter><filter id="C" x="86" y="156" width="50" height="50" filterUnits="userSpaceOnUse" class="B"><feFlood result="A" class="C"/><feColorMatrix in="SourceAlpha" values="0 0 0 0 0 0 0 0 0 0 0 0 0 0 0 0 0 0 127 0" result="B"/><feOffset dy="4"/><feGaussianBlur stdDeviation="2"/><feComposite in2="B" operator="out"/><feColorMatrix values="0 0 0 0 0 0 0 0 0 0 0 0 0 0 0 0 0 0 0.25 0"/><feBlend in2="A"/><feBlend in="SourceGraphic"/></filter><filter id="D" x="138" y="127" width="48" height="48" filterUnits="userSpaceOnUse" class="B"><feFlood result="A" class="C"/><feColorMatrix in="SourceAlpha" values="0 0 0 0 0 0 0 0 0 0 0 0 0 0 0 0 0 0 127 0" result="B"/><feOffset dy="4"/><feGaussianBlur stdDeviation="2"/><feComposite in2="B" operator="out"/><feColorMatrix values="0 0 0 0 0 0 0 0 0 0 0 0 0 0 0 0 0 0 0.25 0"/><feBlend in2="A"/><feBlend in="SourceGraphic"/></filter><filter id="E" x="35" y="125" width="50" height="50" filterUnits="userSpaceOnUse" class="B"><feFlood result="A" class="C"/><feColorMatrix in="SourceAlpha" values="0 0 0 0 0 0 0 0 0 0 0 0 0 0 0 0 0 0 127 0" result="B"/><feOffset dy="4"/><feGaussianBlur stdDeviation="2"/><feComposite in2="B" operator="out"/><feColorMatrix values="0 0 0 0 0 0 0 0 0 0 0 0 0 0 0 0 0 0 0.25 0"/><feBlend in2="A"/><feBlend in="SourceGraphic"/></filter><clipPath id="F"><path fill="#fff" transform="translate(38 42)" d="M0 0h143v143H0z"/></clipPath><path id="G" d="M90 177c0-11.598 9.402-21 21-21h0c11.598 0 21 9.402 21 21h0c0 11.598-9.402 21-21 21h0c-11.598 0-21-9.402-21-21h0z"/></defs></svg>